<?xml version="1.0" encoding="UTF-8" standalone="no"?>
<!DOCTYPE svg PUBLIC "-//W3C//DTD SVG 1.1//EN" "http://www.w3.org/Graphics/SVG/1.1/DTD/svg11.dtd">
<svg version="1.1" xmlns="http://www.w3.org/2000/svg" xmlns:xlink="http://www.w3.org/1999/xlink" preserveAspectRatio="xMidYMid meet" viewBox="0 0 640 640" width="640" height="640"><defs><path d="M431.03 137.21L431.65 137.27L432.26 137.36L432.86 137.47L433.45 137.6L434.04 137.76L434.61 137.94L435.18 138.14L435.73 138.36L436.27 138.6L436.8 138.87L437.32 139.15L437.83 139.45L438.33 139.77L438.81 140.11L439.27 140.47L439.73 140.84L440.17 141.23L440.59 141.64L441 142.06L441.39 142.5L441.76 142.95L442.12 143.42L442.46 143.9L442.78 144.39L443.08 144.9L443.36 145.42L443.62 145.95L443.87 146.5L444.09 147.05L444.29 147.62L444.47 148.19L444.62 148.77L444.73 149.23L401.03 364.05L404.15 364.72L236.84 364.72L239.97 364.05L196.31 149.45L196.33 149.37L196.46 148.77L196.62 148.19L196.8 147.62L197 147.05L197.22 146.5L197.46 145.95L197.72 145.42L198.01 144.9L198.31 144.39L198.63 143.9L198.97 143.42L199.32 142.95L199.7 142.5L200.09 142.06L200.5 141.64L200.92 141.23L201.36 140.84L201.81 140.47L202.28 140.11L202.76 139.77L203.25 139.45L203.76 139.15L204.28 138.87L204.81 138.6L205.36 138.36L205.91 138.14L206.47 137.94L207.05 137.76L207.63 137.6L208.22 137.47L208.83 137.36L209.44 137.27L210.05 137.21L210.68 137.17L211.31 137.16L429.78 137.16L430.41 137.17L431.03 137.21Z" id="l1FCQRFZxQ"></path><path d="M386.58 389.82L386.96 389.85L387.34 389.89L387.71 389.95L388.08 390.02L388.44 390.1L388.8 390.2L389.15 390.31L389.5 390.44L389.84 390.58L390.17 390.73L390.49 390.89L390.81 391.07L391.12 391.25L391.43 391.45L391.72 391.66L392 391.88L392.28 392.12L392.55 392.36L392.81 392.61L393.05 392.87L393.29 393.14L393.52 393.42L393.74 393.71L393.94 394.01L394.14 394.31L394.32 394.62L394.49 394.95L394.65 395.27L394.8 395.61L394.93 395.95L395.05 396.3L395.16 396.65L395.25 397.01L395.33 397.37L395.4 397.74L395.42 397.88L367.9 551.25L369.79 551.74L269.03 551.02L270.92 550.56L245.62 396.99L245.67 396.68L245.74 396.31L245.83 395.94L245.92 395.59L246.04 395.23L246.16 394.89L246.3 394.55L246.45 394.22L246.62 393.89L246.79 393.57L246.98 393.26L247.18 392.96L247.39 392.67L247.61 392.38L247.84 392.11L248.08 391.84L248.33 391.58L248.59 391.33L248.87 391.09L249.15 390.87L249.43 390.65L249.73 390.44L250.04 390.25L250.35 390.07L250.67 389.89L251 389.74L251.33 389.59L251.67 389.46L252.02 389.34L252.37 389.23L252.73 389.13L253.1 389.06L253.47 388.99L253.84 388.94L254.22 388.9L254.6 388.88L254.99 388.88L386.19 389.81L386.58 389.82Z" id="dbS5UnoIZ"></path><path d="M399.22 361.95C407.18 361.95 413.62 368.4 413.62 376.35C413.62 381.98 413.62 384.46 413.62 390.08C413.62 398.03 407.18 404.48 399.22 404.48C364.86 404.48 276.18 404.48 241.82 404.48C233.86 404.48 227.42 398.03 227.42 390.08C227.42 384.46 227.42 381.98 227.42 376.35C227.42 368.4 233.86 361.95 241.82 361.95C276.18 361.95 364.86 361.95 399.22 361.95Z" id="elD7508G4"></path><path d="M323.56 301.27L323.56 301.27L303.96 320L267.65 285.31L287.25 266.59L303.95 282.54L353.79 234.94L373.39 253.67L323.56 301.27Z" id="c3bgoQ35si"></path></defs><g><g><g><use xlink:href="#l1FCQRFZxQ" opacity="1" fill="#00a84f" fill-opacity="1"></use></g><g><use xlink:href="#dbS5UnoIZ" opacity="1" fill="#00a84f" fill-opacity="1"></use></g><g><use xlink:href="#elD7508G4" opacity="1" fill="#e94f37" fill-opacity="1"></use><g><use xlink:href="#elD7508G4" opacity="1" fill-opacity="0" stroke="#fefefe" stroke-width="1" stroke-opacity="1"></use></g></g><g><use xlink:href="#c3bgoQ35si" opacity="1" fill="#fdfffc" fill-opacity="1"></use></g></g></g></svg>